<svg width="790" height="580" xmlns="http://www.w3.org/2000/svg" style="vector-effect: non-scaling-stroke;" stroke="null" version="1.1">
 <g stroke="null">
  <title stroke="null">Layer 1</title>
  <rect stroke="null" x="247.80358" y="136.25225" id="svg_45" fill="#ffffff" height="481.99999" width="661.00001"/>
  <g stroke="null" y="0.30243" x="-1.43458" id="svg_5" transform="matrix(0.998931 0 0 0.998113 1.03443 0.0485904)">
   <svg stroke="null" y="-20.75777" x="-205.16938" id="svg_1" width="1000" height="623" preserveAspectRatio="xMidYMid meet" data-background-color="#ffffff" viewBox="0 0 396 247" xmlns:xlink="http://www.w3.org/1999/xlink" xmlns="http://www.w3.org/2000/svg">
    <g stroke="null" transform="matrix(1 0 0 1 0.24 -0.1)" id="svg_2">
     <g stroke="null" id="svg_4">
      <svg stroke="null" y="0" x="1" id="svg_44" width="395.52" height="247.2" viewBox="0 0 395.52 247.2">
       <g stroke="null" id="svg_81">
        <svg stroke="null" id="svg_83"/>
       </g>
       <g stroke="null" id="svg_46">
        <svg stroke="null" id="svg_84" width="395.52" height="247.2" viewBox="0 0 395.52 247.2">
         <g stroke="null" id="svg_86" transform="matrix(1,0,0,1,78.09950307106287,75.84977558177981)">
          <svg stroke="null" id="svg_118" width="239.32099" height="95.50045" viewBox="0 0 239.32099385787424 95.50044883644037">
           <g stroke="null" id="svg_119">
            <svg stroke="null" id="svg_149" width="239.32099" height="95.50045" viewBox="0 0 239.32099385787424 95.50044883644037">
             <g stroke="null" id="svg_150">
              <svg stroke="null" id="svg_178" width="239.32099" height="95.50045" viewBox="0 0 239.32099385787424 95.50044883644037">
               <g stroke="null" id="svg_179">
                <svg stroke="null" id="svg_205" width="239.32099" height="95.50045" viewBox="0 0 239.32099385787424 95.50044883644037">
                 <g stroke="null" id="svg_211">
                  <svg stroke="null" id="svg_230" width="239.32099" height="58.5814" viewBox="0 0 239.32099385787424 58.581396484375006">
                   <g stroke="null" id="svg_244">
                    <svg stroke="null" id="svg_248">
                     <g stroke="null" id="svg_250"/>
                     <g stroke="null" id="svg_249"/>
                    </svg>
                   </g>
                   <g stroke="null" id="svg_239">
                    <svg stroke="null" id="svg_251">
                     <g stroke="null" id="svg_254"/>
                     <g stroke="null" id="svg_252">
                      <svg stroke="null" id="svg_255"/>
                     </g>
                    </svg>
                   </g>
                   <g stroke="null" id="svg_231">
                    <svg stroke="null" id="svg_256" width="239.32099" height="58.5814" viewBox="0 0 239.32099385787424 58.581396484375006">
                     <g stroke="null" id="svg_260">
                      <svg stroke="null" id="svg_263" data-fill-palette-color="accent" class="icon-a-0" width="62.54472" height="58.5814" xml:space="preserve" enable-background="new 0 0 100 100" viewBox="5.7820000648498535 8.583999633789062 88.43600463867188 82.83200073242188" y="0" x="0" version="1.1" xmlns:xlink="http://www.w3.org/1999/xlink" xmlns="http://www.w3.org/2000/svg">
                       <path stroke="null" id="svg_264" data-fill-palette-color="accent" d="m94.218,35.959l0,-1l-28.25,0l0,-26.375l-1,0l0,26.375l-14.288,0c-0.267,-7.763 -6.648,-14 -14.475,-14c-7.995,0 -14.5,6.505 -14.5,14.5c0,7.915 6.378,14.359 14.263,14.488l0,14.012l-30.186,0l0,1l30.187,0l0,26.457l1,0l0,-26.457l13.525,0c0.267,8.039 6.872,14.5 14.975,14.5c8.271,0 15,-6.729 15,-15c0,-8.103 -6.461,-14.708 -14.5,-14.975l0,-13.525l28.249,0zm-70.512,-0.5c0,-6.893 5.607,-12.5 12.5,-12.5s12.5,5.607 12.5,12.5s-5.607,12.5 -12.5,12.5s-12.5,-5.607 -12.5,-12.5zm41.262,14.025c-7.871,0.262 -14.213,6.604 -14.475,14.475l-13.525,0l0,-14.039c7.473,-0.391 13.454,-6.453 13.712,-13.961l14.288,0l0,13.525z" fill="#7a26c1"/>
                      </svg>
                     </g>
                     <g stroke="null" id="svg_257" transform="matrix(1,0,0,1,76.37543721724924,3.552713678800501e-15)">
                      <svg stroke="null" id="svg_265" data-palette-color="#7a26c1" height="58.5814" viewBox="2.200000047683716 -35.45000076293945 100.70000457763672 36.209999084472656" width="162.94556">
                       <path stroke="null" id="svg_266" data-fill-palette-color="primary" class="undefined-text-0" fill="#7a26c1" d="m4.88,-0.9l-1.56,0.24q-0.32,0 -0.39,-0.51l0,0q-0.27,-2.3 -0.42,-3.57q-0.14,-1.27 -0.2,-1.9q-0.06,-0.64 -0.08,-0.82q-0.01,-0.18 -0.01,-0.25l0,0q0,-0.27 0.25,-0.59q0.24,-0.32 0.58,-0.32l0,0q0.25,0 0.53,0.29q0.28,0.3 0.53,0.69q0.26,0.39 0.44,0.78q0.19,0.39 0.24,0.56l0,0q0.63,1.34 1.37,2.26q0.75,0.91 1.7,1.46q0.95,0.55 2.15,0.8q1.2,0.24 2.73,0.24l0,0q2.62,0 4.07,-1.24q1.45,-1.25 1.45,-4.01l0,0q0,-1.58 -0.69,-2.88q-0.7,-1.29 -1.82,-2.4q-1.13,-1.11 -2.57,-2.11q-1.44,-1.01 -2.95,-2.03q-1.51,-1.03 -2.95,-2.14q-1.45,-1.11 -2.57,-2.45q-1.12,-1.34 -1.82,-2.98q-0.69,-1.64 -0.69,-3.69l0,0q0,-1.24 0.45,-2.32q0.45,-1.07 1.21,-1.95q0.75,-0.88 1.77,-1.57q1.01,-0.7 2.16,-1.17q1.15,-0.48 2.33,-0.73q1.18,-0.24 2.31,-0.24l0,0q0.9,0 1.82,0.16q0.91,0.16 1.8,0.38q0.89,0.22 1.8,0.47q0.9,0.26 1.78,0.48l0,0l1.61,-0.15q0.22,0 0.28,0.19q0.06,0.18 0.09,0.33l0,0l0.7,5.73q0,0.13 -0.31,0.17q-0.32,0.05 -0.49,0.05l0,0q-0.15,0 -0.44,-0.03q-0.29,-0.04 -0.34,-0.09l0,0q-0.08,-0.07 -0.19,-0.3q-0.11,-0.24 -0.23,-0.52q-0.12,-0.28 -0.25,-0.57q-0.14,-0.29 -0.28,-0.51l0,0q-1.18,-1.81 -3.01,-2.7q-1.83,-0.89 -4.03,-0.89l0,0q-0.95,0 -1.78,0.22q-0.83,0.22 -1.44,0.69q-0.61,0.48 -0.96,1.21q-0.36,0.73 -0.36,1.76l0,0q0,1.49 0.7,2.7q0.69,1.21 1.83,2.27q1.14,1.06 2.59,2.06q1.45,1 2.95,2.04q1.5,1.04 2.96,2.21q1.45,1.17 2.58,2.59q1.14,1.41 1.84,3.15q0.69,1.73 0.69,3.9l0,0q0,1.44 -0.5,2.69q-0.5,1.24 -1.35,2.26q-0.86,1.01 -2.01,1.79q-1.14,0.78 -2.45,1.31q-1.31,0.52 -2.69,0.79q-1.38,0.27 -2.69,0.27l0,0q-1.66,0 -2.9,-0.24q-1.23,-0.25 -2.12,-0.55q-0.89,-0.31 -1.5,-0.55q-0.61,-0.25 -1.03,-0.25l0,0q-0.14,0 -0.22,0.03l0,0zm47.61,-8.38l2.93,5.03q0.51,0.88 1.16,1.55q0.64,0.67 1.45,0.67l0,0q0.24,0 0.73,-0.16q0.49,-0.15 1.02,-0.36q0.52,-0.21 1.01,-0.37q0.49,-0.16 0.76,-0.16l0,0q0.34,0 0.54,0.13q0.21,0.12 0.31,0.26q0.1,0.15 0.12,0.29q0.03,0.13 0.03,0.18l0,0q0,0.1 -0.08,0.3q-0.07,0.21 -0.46,0.48l0,0q-1.37,0.88 -2.94,1.54q-1.58,0.66 -3.43,0.66l0,0q-1.17,0 -2.05,-0.38q-0.88,-0.38 -1.58,-0.99q-0.69,-0.61 -1.27,-1.4q-0.57,-0.8 -1.11,-1.63l0,0q-0.24,-0.34 -0.47,-0.71q-0.24,-0.36 -0.51,-0.73l0,0q-1.17,1.03 -2.55,2.05q-1.38,1.03 -2.9,1.85q-1.53,0.81 -3.18,1.33q-1.64,0.51 -3.38,0.51l0,0q-2.02,0 -3.77,-0.86q-1.74,-0.85 -3.03,-2.24q-1.28,-1.39 -2.01,-3.16q-0.73,-1.77 -0.73,-3.6l0,0q0,-1.86 0.69,-3.35q0.7,-1.49 1.93,-2.72q1.23,-1.23 2.89,-2.21q1.66,-0.98 3.62,-1.81l0,0q-0.83,-0.83 -1.5,-1.63q-0.67,-0.81 -1.14,-1.64q-0.46,-0.83 -0.71,-1.73q-0.24,-0.91 -0.24,-1.98l0,0q0,-1.61 0.72,-2.82q0.72,-1.21 1.89,-2.03q1.17,-0.81 2.66,-1.22q1.49,-0.4 3.03,-0.4l0,0q1.34,0 2.69,0.44q1.34,0.44 2.41,1.23q1.08,0.8 1.74,1.93q0.66,1.14 0.66,2.53l0,0q0,1.12 -0.47,2.09q-0.46,0.96 -1.2,1.78q-0.73,0.82 -1.66,1.49q-0.92,0.67 -1.85,1.21l0,0q-0.1,0.07 -0.14,0.09q-0.03,0.03 -0.03,0.1l0,0q0,0.12 0.14,0.22l0,0q0.1,0.07 0.57,0.49q0.46,0.41 1.36,1.32q0.91,0.9 2.27,2.37q1.37,1.46 3.25,3.63l0,0l5.25,-7.93q0.22,-0.34 0.34,-0.64q0.12,-0.29 0.12,-0.73l0,0q0,-0.61 -0.29,-0.78q-0.29,-0.17 -0.61,-0.22l0,0q-0.34,-0.07 -0.66,-0.13q-0.32,-0.06 -0.56,-0.17q-0.24,-0.11 -0.39,-0.3q-0.15,-0.18 -0.15,-0.45l0,0q0,-0.1 0.02,-0.23q0.01,-0.14 0.12,-0.27q0.11,-0.13 0.33,-0.22q0.22,-0.08 0.63,-0.08l0,0l9.55,0q0.27,0.41 0.31,0.63q0.05,0.22 0.05,0.27l0,0q0,0.54 -0.29,0.71q-0.29,0.17 -0.81,0.22l0,0q-0.56,0.07 -1.13,0.13q-0.57,0.06 -1.11,0.21q-0.54,0.14 -1.01,0.45q-0.48,0.31 -0.82,0.84l0,0l-7.08,11.23zm-13.5,6.3l0,0q1.07,0 2.15,-0.41q1.07,-0.42 2.08,-1.02q1.02,-0.59 1.97,-1.29q0.95,-0.7 1.76,-1.28l0,0q0.26,-0.2 0.26,-0.37l0,0q0,-0.07 -0.04,-0.17l0,0q-1.76,-3.12 -3.96,-5.59q-2.2,-2.47 -4.78,-4.61l0,0q-0.13,0.04 -0.42,0.22q-0.29,0.17 -0.49,0.29l0,0q-0.95,0.56 -1.74,1.39q-0.8,0.83 -1.37,1.84q-0.57,1.02 -0.89,2.18q-0.32,1.16 -0.32,2.33l0,0q0,1.24 0.45,2.41q0.45,1.18 1.25,2.08q0.79,0.9 1.84,1.45q1.05,0.55 2.25,0.55zm-1.05,-24.24l0,0q0,0.85 0.23,1.68q0.23,0.83 0.63,1.57q0.41,0.73 0.97,1.35q0.56,0.62 1.22,1.09l0,0q0.58,-0.22 1.05,-0.78q0.46,-0.57 0.78,-1.26q0.32,-0.7 0.49,-1.44q0.17,-0.75 0.17,-1.36l0,0q0,-0.88 -0.16,-1.65q-0.16,-0.76 -0.51,-1.33q-0.36,-0.56 -0.92,-0.87q-0.56,-0.32 -1.39,-0.32l0,0q-1.24,0 -1.9,0.95q-0.66,0.95 -0.66,2.37zm27.58,27.02l0,-0.95q0,-0.19 0.2,-0.19l0,0q0.46,-0.03 1.08,-0.14q0.63,-0.11 1.27,-0.46q0.65,-0.35 1.26,-1.05q0.61,-0.7 1.03,-1.92l0,0l9.81,-28.46q0,0.02 0.01,-0.03q0.02,-0.05 0.02,-0.1l0,0q0,-0.17 -0.14,-0.42q-0.13,-0.26 -0.13,-0.38l0,0q0,-0.12 0.09,-0.12l0,0l7.08,0q0.05,0.02 0.14,0.04q0.08,0.03 0.13,0.15l0,0l10.33,28.98q0.24,0.68 0.46,1.17q0.22,0.49 0.53,0.87q0.3,0.38 0.77,0.68q0.46,0.31 1.19,0.63l0,0q0.35,0.17 0.93,0.36q0.59,0.2 1.12,0.2l0,0q0.13,0 0.16,0.07q0.04,0.07 0.04,0.15l0,0l0,0.92q0,0.05 -0.04,0.13q-0.03,0.07 -0.16,0.07l0,0l-17.13,0q-0.13,0 -0.16,-0.07q-0.04,-0.08 -0.04,-0.13l0,0l0,-0.95q0,-0.05 0.04,-0.12q0.03,-0.07 0.16,-0.07l0,0q0.09,0 0.19,-0.01q0.1,-0.02 0.15,-0.02l0,0q0.27,-0.02 0.77,-0.05q0.5,-0.02 1.08,-0.08q0.59,-0.06 1.19,-0.2q0.6,-0.13 1.08,-0.39q0.49,-0.25 0.81,-0.67q0.32,-0.41 0.32,-1.02l0,0q0,-0.15 -0.05,-0.35l0,0l-3.2,-8.81q-0.02,-0.05 -0.09,-0.22q-0.06,-0.17 -0.19,-0.35q-0.13,-0.19 -0.34,-0.33q-0.21,-0.15 -0.5,-0.15l0,0l-8.82,0q-0.31,0 -0.53,0.15q-0.22,0.14 -0.37,0.31q-0.15,0.18 -0.23,0.35q-0.09,0.17 -0.09,0.19l0,0q-0.78,2.3 -1.32,3.87q-0.53,1.58 -0.89,2.6q-0.35,1.03 -0.55,1.59q-0.19,0.56 -0.28,0.82q-0.08,0.25 -0.09,0.31q-0.02,0.06 -0.02,0.06l0,0q0,0.08 0.03,0.16q0.02,0.09 0.05,0.16l0,0q0.19,0.61 0.72,1.02q0.52,0.4 1.21,0.63q0.68,0.23 1.4,0.33q0.72,0.1 1.28,0.1l0,0l0.64,0q0.12,0 0.15,0.07q0.04,0.07 0.04,0.12l0,0l0,0.95q0,0.05 -0.04,0.13q-0.03,0.07 -0.15,0.07l0,0l-13.21,0q-0.2,0 -0.2,-0.2l0,0zm15.87,-26.19l-3.07,8.89q-0.05,0.12 -0.08,0.24q-0.02,0.12 -0.02,0.24l0,0q0,0.15 0.07,0.24q0.07,0.08 0.29,0.08l0,0l7.33,0q0.27,0 0.35,-0.11q0.09,-0.11 0.09,-0.26l0,0q0,-0.12 -0.03,-0.22q-0.02,-0.09 -0.07,-0.21l0,0l-3.25,-8.92q-0.12,-0.34 -0.36,-0.5q-0.25,-0.16 -0.44,-0.16l0,0q-0.2,0 -0.44,0.19q-0.25,0.18 -0.37,0.5l0,0z"/>
                      </svg>
                     </g>
                    </svg>
                   </g>
                  </svg>
                 </g>
                 <g stroke="null" id="svg_206" transform="matrix(1,0,0,1,45.71030982685399,72.41105824082032)">
                  <svg stroke="null" id="svg_267" width="147.90037" height="23.08939" viewBox="0 0 147.90037420416627 23.08939059562006">
                   <g stroke="null" id="svg_268">
                    <svg stroke="null" id="svg_271" data-palette-color="#7a26c1" height="23.08939" viewBox="2.799999952316284 -34.75 230.5800018310547 36" width="147.90037">
                     <path stroke="null" id="svg_272" data-fill-palette-color="secondary" class="undefined-text-1" fill="#7a26c1" d="m17.4,0.3l-0.7,-0.05l-0.65,-0.1l-0.8,0q-0.75,-0.1 -2.6,-0.2l0,0q-0.4,0 -0.75,-0.05q-0.35,-0.05 -0.65,-0.05l0,0l-1.1,0l-0.5,-0.05q-1.6,0 -2.35,0.05l0,0q-0.75,0.1 -2.35,0.1l0,0l-1,0l-0.9,0.05l-0.15,-0.2l0,-0.55l0,-1.25l0,-1.3l0,-0.85l0,-3.4q0,-1.2 -0.1,-1.75l0,0l0,-1.2l0.2,-2.15q0.15,-2 0.15,-5.75l0,0q0.1,-6.05 0.75,-8.75l0,0q0.35,-1.45 1.15,-1.85l0,0l5.85,0.05q0.75,0.05 2.15,0.05l0,0l2.4,0q0.25,0.05 0.93,0.1q0.67,0.05 1.02,0.25l0,0q0.3,0.25 0.42,0.67q0.13,0.43 0.13,1.23l0,0l-0.05,0.4l0,0.6q-0.15,0.35 -0.15,0.7l0,0q-0.1,0.4 -0.05,0.8l0,0l0,0.75q0.05,0.25 0.05,0.7l0,0l0.05,0.4l0,1.15l0.05,1.6q0.05,0.5 0.05,1.4l0,0q0.1,0.7 0.25,0.95l0,0q0,0.35 -0.05,0.75q-0.05,0.4 -0.05,0.8l0,0q-0.05,0.6 -0.05,1.8l0,0q0,1.15 0.05,1.7l0,0q0,0.8 0.25,1.65l0,0q0.5,0.2 1.15,0.2l0,0q1.65,0 3.43,-0.05q1.77,-0.05 3.17,-0.3l0,0q0.3,0.05 0.58,0.4q0.27,0.35 0.27,0.6l0,0l-0.35,8.6q-0.1,0.3 -0.4,0.4l0,0q-0.85,0.4 -2.35,0.5l0,0q-2,0.3 -2.65,0.3l0,0l-0.85,0q-1,0 -1.5,0.05l0,0q-1,0.1 -1.4,0.1l0,0zm15.65,-0.5q-0.1,0 -0.15,-0.2l0,0q-0.35,-0.45 -0.5,-1.1l0,0q-0.15,-0.25 -0.25,-0.65l0,0q-0.45,-0.9 -0.65,-2.5l0,0q-0.2,-2.3 -0.2,-3.65l0,0q-0.05,-0.6 -0.05,-1.65l0,0l0,-1.2q0,-1.5 -0.05,-2.35l0,0q-0.05,-0.9 -0.05,-3.55l0,0q0,-7.1 0.3,-10.95l0,0q0,-0.6 1.7,-0.9l0,0l1.5,0l1.25,0q2.85,0 4.25,0.1l0,0q2.1,0.15 4.25,0.15l0,0q0.5,0 0.75,-0.05l0,0l0.75,0l0.25,0.2q1.65,-0.35 3.4,-0.45q1.75,-0.1 4.25,-0.1l0,0q0.1,0 0.25,0.15l0,0l1.6,0q0.4,0 0.62,0.45q0.23,0.45 0.38,1.3l0,0q0.2,0.65 0.3,1.6l0,0q0.2,1.25 0.35,1.65l0,0q0,1.4 -0.5,1.4l0,0q-0.05,0 -0.15,-0.15l0,0l-0.2,-0.05q-0.25,-0.05 -0.55,0.05l0,0q-0.3,0.15 -0.65,0.15l0,0q-0.3,0 -0.5,-0.15l0,0q-0.1,-0.05 -0.45,-0.05l0,0q-0.45,0 -1.05,0.15l0,0q-0.2,0.05 -0.78,0.15q-0.57,0.1 -1.32,0.1l0,0q-2.15,0 -3.1,0.1l0,0q-0.55,0.05 -1.05,0.3l0,0l0,-0.1q-0.2,0 -0.35,0.5l0,0q-0.35,0.85 -0.45,2.35l0,0q-0.05,0.45 -0.05,1l0,0q0,0.55 0.17,0.75q0.18,0.2 0.58,0.2l0,0q0.3,0 0.5,-0.2l0,0q0.1,0 0.25,0.05q0.15,0.05 0.25,0.15l0,0l4.25,0q0.05,-0.1 0.15,-0.15q0.1,-0.05 0.2,-0.05l0,0q0.5,0 0.75,0.15l0,0q0.3,0.15 1.2,0.3l0,0q0.5,0 0.7,0.3l0,0q0.25,0.35 0.25,0.65l0,0l1.05,3.3q0.15,0.8 -1.5,1.05l0,0q-0.95,0.2 -3.65,0.2l0,0l-2.15,0l-1.5,0q-0.7,0 -1.05,0.07q-0.35,0.08 -0.45,0.38l0,0q-0.2,0.25 -0.2,0.8l0,0l0,0.2q0,0.25 0.05,0.35l0,0l-0.05,1.1q-0.05,0.35 -0.05,1.05l0,0l0,0.5l0,0.45l0,0.3q2.25,0 4.6,-0.15l0,0q2.3,-0.15 4.55,-0.15l0,0q0.15,0 0.25,0.22q0.1,0.23 0.1,0.53l0,0q0.1,0.3 0.1,0.65l0,0q0.1,0.75 0.3,1.4l0,0l0.35,1.45l0,1l0,0.15l0,0.4l-0.4,0.35l-0.35,0l-0.15,0q-0.55,0 -0.7,-0.05l0,0q-0.15,-0.1 -0.35,-0.1l0,0q-0.1,0.05 -0.3,0.15q-0.2,0.1 -0.35,0.2l0,0l0,-0.25l-0.6,0.05l-0.75,0q-0.2,0 -0.3,-0.1l0,0l-0.4,-0.05q-1.85,0 -2.6,0.35l0,0l-15.85,0zm46.75,0.35l-2.46,0l-2.29,0l-2.6,0l-3.3,0q-0.45,-0.7 -0.6,-2.55l0,0q-0.21,-1.65 -0.21,-4.8l0,0l0.06,-5.5q0.05,-2 0.05,-6.35l0,0l-0.15,-0.15l-4.95,0q-1.1,0 -1.45,-2.5l0,0q-0.2,-1.35 -0.2,-3.95l0,0l0,-0.65q0.1,-0.35 0.1,-1.1l0,0l0,-1l0.05,-0.4l0.2,-0.2l0.9,0.05l1,0q2.2,0 3.35,-0.05l0,0l3.25,0l0.9,0l1.7,0l2.15,0l2.15,0q0.64,0.05 1.85,0.05l0,0l1.25,0q0.2,-0.1 0.65,-0.1l0,0q0.35,-0.1 0.64,-0.1l0,0q0.96,0 1.46,0.1l0,0q1,0.1 1.5,0.1l0,0l1.29,-0.05l1.96,0q1.5,0 2.04,0.05l0,0l0.71,0.05q0.04,0.05 0.15,0.12q0.1,0.08 0.1,0.13l0,0l0,8.5q0,0.3 -0.33,0.65q-0.32,0.35 -0.63,0.45l0,0q-1.64,-0.35 -4.29,-0.35l0,0l-1.9,0q-0.75,0 -1,1.9l0,0q-0.1,0.55 -0.1,1.6l0,0l0,1.5q0,1 0.04,1.5l0,0l0,1.4q0,2.05 -0.19,3.8l0,0q-0.1,1.3 -0.1,1.9l0,0q-0.1,0.6 -0.1,1.65l0,0q0,1.5 -0.11,2.5l0,0q-0.04,1.55 -1.14,1.65l0,0q-1.2,0.15 -1.4,0.15l0,0zm18.54,-10.7q-0.35,-0.25 -0.52,-0.65q-0.18,-0.4 -0.33,-0.85l0,0l-0.2,-0.85q-0.1,-0.6 -0.1,-0.85l0,0q-0.3,-1.2 -0.47,-2.6q-0.18,-1.4 -0.23,-1.8l0,0q-0.05,-1.2 -0.25,-2.63q-0.2,-1.42 -0.25,-1.87l0,0q-0.95,-6.1 -1.4,-10.65l0,0l0.35,-0.35l0.35,0l2.2,-0.35q0.3,-0.05 0.95,-0.05l0,0q0.65,0 1,0.05l0,0l1.8,0q0.45,-0.2 1.1,-0.2l0,0q0.35,0.05 1.1,0.05l0,0l0.3,0.15q0.1,-0.05 0.25,-0.1q0.15,-0.05 0.25,-0.05l0,0q0.15,0.1 0.33,0.05q0.17,-0.05 0.17,-0.05l0,0q0.1,0.1 0.3,0.1l0,0l0.4,0.1l2.15,0.15l0.35,0.1l0.25,0q0,-0.05 0.1,-0.05l0,0q0.4,0.1 0.68,0.17q0.27,0.08 0.47,0.13l0,0q0.8,0.2 0.8,0.8l0,0q0,1.25 -0.15,2.5l0,0q-0.1,0.8 -0.6,4.15l0,0q-0.05,0.45 -0.12,0.9q-0.08,0.45 -0.13,0.7l0,0q-0.15,0.8 -0.2,1.4q-0.05,0.6 -0.1,1l0,0l-0.15,1.2q-0.05,1.5 -0.5,3.6l0,0q-0.15,0.55 -0.2,0.97q-0.05,0.43 -0.1,0.68l0,0l-0.3,1.65q-0.25,1.7 -0.7,3.25l0,0l-0.55,0l-1.4,0q-0.2,0.1 -0.55,0.1l0,0l-0.05,0l-0.35,-0.2l-0.15,0.1l-2.5,0q-1,0 -1.5,0.1l0,0l-0.85,0.05l-0.75,-0.05zm23.4,11.7l-0.6,-0.15l-1.15,-0.2q-1.65,-0.25 -2.75,-0.6l0,0q-0.6,-0.05 -1.05,-0.35l0,0q-0.4,-0.15 -0.5,-0.4l0,0l-1.1,-6.2l0,-0.25q0,-0.35 0.08,-0.53q0.07,-0.17 0.32,-0.22l0,0q3.25,1.25 6.4,1.25l0,0q1,0 1.55,0.05l0,0q1.9,0 2.75,-0.5l0,0q0.45,-0.3 0.45,-0.85l0,0q0,-0.8 -0.5,-1.33q-0.5,-0.52 -1.45,-0.92l0,0l-1.6,-0.6q-0.7,-0.15 -1.6,-0.55l0,0q0,-0.05 -0.05,-0.08q-0.05,-0.02 -0.1,-0.12l0,0q-0.2,-0.05 -0.85,-0.5l0,0l-0.3,-0.15q0.1,0 0.1,-0.05q0,-0.05 -0.15,-0.1l0,0q-0.15,-0.1 -0.57,-0.33q-0.43,-0.22 -0.73,-0.52l0,0q-0.45,-0.25 -0.45,-0.6l0,0l0,-0.25q-1.25,0 -2.15,-2.6l0,0q-0.75,-2.65 -0.75,-3.75l0,0q0,-4.65 4,-7.15l0,0q3.25,-2.05 8.95,-2.75l0,0q3.7,-0.4 9.2,-0.4l0,0q0.7,0.25 1.1,0.3l0,0q0.9,0.05 1.2,0.6l0,0q0.15,0.25 0.25,1l0,0q0.15,0.8 0.3,4.65l0,0q0.1,0.1 0.1,0.3l0,0q0,0.4 -1.1,0.65l0,0q-1.2,0.15 -1.55,0.15l0,0l-1.15,0.15q-1.95,0.25 -2.55,0.35l0,0q-2.05,0.35 -2.85,1.25l0,0q-0.5,0.6 -0.5,1.25l0,0q0,0.35 0.1,0.55q0.1,0.2 0.5,0.45l0,0q0.45,0.25 2.6,1.25l0,0q2.3,1 4.6,2.6l0,0q1.95,1.35 2.8,3.6l0,0q0.45,0.95 0.45,2.5l0,0q0,1.4 -0.35,2.4l0,0q-1.3,3.3 -4.9,5.4l0,0q-1.7,1 -3.55,1.58q-1.85,0.57 -3.55,0.57l0,0l-7.35,0.15zm52,0q-3.9,0 -7,-1.8l0,0q-3.5,-1.7 -5.75,-5.6l0,0q-2.5,-4.4 -2.5,-10.4l0,0q0,-4.25 1.5,-7.65q1.5,-3.4 4.29,-5.75l0,0q2.75,-2.3 6.46,-3.5q3.7,-1.2 8.05,-1.2l0,0q6.4,0 13.2,3.25l0,0l-1.95,8.5q-0.35,-0.1 -0.83,-0.25q-0.47,-0.15 -1.07,-0.3l0,0q-2.75,-0.7 -4.05,-0.9l0,0q-1.2,-0.2 -1.95,-0.2l0,0q-3.15,0 -4.8,1.7l0,0q-1.95,1.95 -1.95,6.55l0,0q0,4.2 1.25,6l0,0q1.05,1.7 3.1,1.7l0,0q1.3,0 3,-0.7l0,0q0,-0.8 -0.1,-2.4l0,0l-0.05,-1.1q-0.05,-1.15 -0.05,-3.4l0,0l0,-1.35q0,-0.45 0.15,-0.63q0.15,-0.17 0.55,-0.17l0,0q0.15,0.05 0.85,0.05l0,0l5.3,0q2.35,0 3.1,-0.05l0,0q1.35,0 1.75,0.05l0,0q0.65,0.15 0.87,0.47q0.23,0.33 0.23,1.03l0,0q0,0.25 0.05,0.45l0,0l0,0.45l0,0.8l0,1.5l0,5.05l0,0.25q-0.05,0.2 -0.1,0.45q-0.05,0.25 -0.05,0.55l0,0l0,0.25q0,3.15 -0.1,4.4l0,0q-0.1,2.05 -0.35,2.6l0,0q-1.3,0 -1.95,0.1l0,0l-1.1,0.05l-0.15,0q-0.45,0 -0.5,-0.05l0,0q-0.05,-0.05 -0.08,-0.08q-0.02,-0.02 -0.02,-0.02l0,0l-0.15,0q-0.05,0.05 -0.08,0.1q-0.02,0.05 -0.02,0.05l0,0l-5,0l-0.25,0l-0.5,0l-0.6,0q-0.15,0.05 -0.4,0.05l0,0q-0.2,0 -0.35,-0.3l0,0q-0.35,-0.9 -0.4,-2.15l0,0q-0.1,-0.6 -0.2,-1.75l0,0q-0.45,2.55 -3.15,3.95l0,0q-2.45,1.35 -6.15,1.35l0,0zm41.64,0.1q-0.4,0 -1.1,-0.1l0,0q-0.35,-0.1 -1.1,-0.1l0,0q-1.9,0 -4.7,-0.85l0,0l-0.35,0q-0.35,0 -0.75,-0.2l0,0q-0.1,-0.1 -0.25,-0.18q-0.15,-0.07 -0.35,-0.22l0,0l-1.05,-0.6q-1.5,-0.85 -2.65,-2.38q-1.15,-1.52 -1.85,-3.37l0,0q-1.35,-3.4 -1.35,-6.95l0,0q0,-3.95 1.6,-7.6l0,0q1.7,-3.85 4.55,-6.1l0,0q3.15,-2.5 7,-2.5l0,0q1.2,0 1.85,0.1l0,0q0,-0.1 0.15,-0.1l0,0l0.15,0q3.5,0 6.25,0.25l0,0q2.35,0.35 4.35,1.45l0,0q4,2.65 5.75,5.8l0,0q1.85,3.5 1.85,8.25l0,0q0,4.75 -2.25,8.9l0,0l-0.5,0.8q-0.2,0.3 -0.25,0.3l0,0l-0.15,0.25l-0.35,0.2q-2.15,3.2 -6.5,4.35l0,0q-2.9,0.6 -8,0.6l0,0zm0.85,-3.75q0.45,0 0.7,-0.55l0,0q0.6,-0.9 1,-3.5l0,0q0.05,-0.45 0.25,-2q0.2,-1.55 0.25,-2.9l0,0q0.2,-3.4 0.2,-4.2l0,0l0,-1.15l0,-0.4q0,-1.8 -0.15,-3.1l0,0q-0.15,-2.05 -0.6,-3.25l0,0q-0.45,-0.6 -0.7,-0.6l0,0q-0.5,0 -0.95,0.75l0,0q-0.45,0.75 -0.7,2.75l0,0l-1.05,8l0,1l0,0.65q0.15,2.1 0.15,2.75l0,0l0.1,1.2l0.15,1.6q0,0.4 0.1,0.7l0,0l0.55,1.85q0.05,0.2 0.28,0.3q0.22,0.1 0.42,0.1l0,0z"/>
                    </svg>
                   </g>
                  </svg>
                 </g>
                </svg>
               </g>
              </svg>
             </g>
            </svg>
           </g>
          </svg>
         </g>
         <path stroke="transparent" id="svg_85" data-fill-palette-color="primary" fill="#7a26c1" d="m162.401,69.85l0,-61.534l230.567,0l0,230.568l-230.567,0l0,-61.534l5.283,0l0,56.251l220.001,0l0,-220.002l-220.001,0l0,56.251l-5.283,0z"/>
        </svg>
       </g>
      </svg>
     </g>
     <rect stroke="null" id="svg_3" visibility="hidden" fill="none" height="247.2" width="395.52"/>
    </g>
   </svg>
  </g>
 </g>

</svg>